<?xml version="1.0" encoding="iso-8859-1"?>
<!-- Generator: Adobe Illustrator 19.0.0, SVG Export Plug-In . SVG Version: 6.00 Build 0)  -->
<svg version="1.1" id="Capa_1" xmlns="http://www.w3.org/2000/svg" xmlns:xlink="http://www.w3.org/1999/xlink" x="0px" y="0px"
	 viewBox="0 0 512 512" style="enable-background:new 0 0 512 512;" xml:space="preserve">
<g>
	<g>
		<path d="M502.747,74.024H9.253C4.143,74.024,0,78.167,0,83.277v345.446c0,4.998,3.965,9.059,8.92,9.236
			c0.096,0.011,0.205,0.017,0.333,0.017h493.494c5.111,0,9.253-4.143,9.253-9.253V83.277C512,78.167,507.858,74.024,502.747,74.024z
			 M480.409,92.53L256,316.939L31.591,92.53H480.409z M493.494,406.384L373.58,286.47c-3.615-3.614-9.473-3.614-13.086,0
			c-3.614,3.614-3.614,9.473,0,13.085L480.409,419.47H31.591l119.915-119.915c3.614-3.614,3.614-9.473,0-13.085
			c-3.614-3.614-9.473-3.614-13.085,0L18.506,406.385v-300.77l230.951,230.951c1.806,1.806,4.175,2.711,6.542,2.711
			c2.368,0,4.736-0.903,6.544-2.711l230.95-230.95V406.384z"/>
	</g>
</g>
<g>
</g>
<g>
</g>
<g>
</g>
<g>
</g>
<g>
</g>
<g>
</g>
<g>
</g>
<g>
</g>
<g>
</g>
<g>
</g>
<g>
</g>
<g>
</g>
<g>
</g>
<g>
</g>
<g>
</g>
</svg>
