<svg width="314" height="270" viewBox="0 0 314 270" fill="none" xmlns="http://www.w3.org/2000/svg">
<path opacity="0.4" d="M206.324 2.0529C175.165 -0.78466 150.575 -1.09325 119.904 3.77787C99.8905 3.77787 83.7472 9.41974 67.3815 19.308C57.2508 25.429 47.6357 30.8968 39.3198 39.1514C30.9542 47.4553 22.5873 58.353 13.8657 65.7735C-6.85868 83.4062 0.660605 126.589 4.80151 148.968C14.2119 199.824 50.9599 230.994 94.0773 256.442C116.58 269.724 138.766 270 164.107 270C202.419 270 236.371 264.145 267.165 239.927C289.619 222.268 308.45 191.596 311.617 163.018C313.939 142.069 315.549 115.062 311.617 94.2444C302.825 47.6972 253.004 6.30389 206.324 2.0529Z" fill="#9f7aea"/>
</svg>
