<svg width="299" height="613" fill="none" xmlns="http://www.w3.org/2000/svg"><path opacity=".4" d="M225.379 4.6608c-34.037-6.4423-60.898-7.1429-94.401 3.9164-21.862 0-39.4962 12.8091-57.3734 35.2591-11.0663 13.8969-21.5694 26.3109-30.6533 45.0518-9.1383 18.8529-18.2779 43.5949-27.805 60.4419C-7.4921 189.363.7216 287.404 5.245 338.212c10.2795 115.463 50.4214 186.23 97.521 244.007C127.347 612.373 151.582 613 179.264 613c41.85 0 78.938-13.292 112.576-68.277 24.527-40.092 45.098-109.729 48.557-174.611 2.536-47.563 4.295-108.879 0-156.142-9.604-105.68-64.026-199.6578-115.018-209.3092z" fill="#9f7aea"/></svg>