<svg width="667" height="614" fill="none" xmlns="http://www.w3.org/2000/svg"><path opacity=".4" d="M424.214 4.6684C353.957-1.7844 298.512-2.486 229.357 8.5912c-45.126 0-81.526 12.83-118.427 35.3166-22.8421 13.9196-44.5221 26.3539-63.2726 45.1253C28.7947 107.917 9.9294 132.699-9.736 149.574c-46.7288 40.098-29.7745 138.299-20.4377 189.19C-8.9554 454.415 73.9032 525.298 171.123 583.169 221.862 613.372 271.886 614 329.025 614c86.385 0 162.939-13.314 232.374-68.389 50.627-40.157 93.088-109.908 100.228-174.895 5.235-47.641 8.867-109.057 0-156.397C641.802 108.467 529.468 14.3355 424.214 4.6684z" fill="#9f7aea"/></svg>